<?xml version="1.0" encoding="utf-8"?>
<!DOCTYPE svg PUBLIC "-//W3C//DTD SVG 20010904//EN" "http://www.w3.org/TR/2001/REC-SVG-20010904/DTD/svg10.dtd">
<svg version="1.0" xmlns="http://www.w3.org/2000/svg" width="44px" height="45px" viewBox="0 0 44 45" preserveAspectRatio="xMidYMid meet">
 <g fill="#000000">
  <path d="M0 22.5 l0 -22.5 22 0 22 0 0 22.5 0 22.5 -22 0 -22 0 0 -22.5z"/>
 </g>
 <g fill="#ffffff">
  <path d="M16.7 40.2 c-2 -2.2 -2.1 -4.5 -0.6 -7.4 0.9 -1.7 0.5 -3.8 -2.7 -11.6 -2.1 -5.2 -4.4 -9.6 -5.1 -9.8 -4.3 -1.3 -4.8 -1.7 -2.5 -2.2 1.6 -0.2 2.2 -0.8 1.8 -1.9 -0.3 -0.8 -0.8 -2.7 -1.1 -4.1 -0.6 -3.4 1.6 1.3 8 16.6 4 9.4 5 11.2 6.9 11.2 1.2 0 2.7 0.5 3.3 1.1 0.9 0.9 2.9 0.5 7.9 -1.5 3.6 -1.5 6.9 -2.5 7.2 -2.2 0.3 0.3 -1 1.2 -2.9 2 -1.9 0.8 -5.1 2.1 -7.1 2.9 -2.6 1.1 -3.8 2.2 -3.8 3.6 0 4.6 -6.2 6.8 -9.3 3.3z m6.7 -1.1 c3.1 -3.4 0 -8 -4.5 -6.6 -2.7 0.9 -3.4 4.3 -1.3 6.6 0.9 1 2.2 1.9 2.9 1.9 0.7 0 2 -0.9 2.9 -1.9z"/>
  <path d="M19.6 37.3 c-1.1 -1.1 -0.6 -2.3 0.9 -2.3 0.8 0 1.5 0.4 1.5 0.9 0 1.3 -1.6 2.2 -2.4 1.4z"/>
  <path d="M32 27.9 c3.5 -1.7 6.6 -3.2 6.8 -3.4 0.3 -0.2 -2.4 -6.2 -3.3 -7.3 -0.2 -0.2 -14.6 5.7 -15.3 6.3 -0.2 0.2 0.1 1.3 0.8 2.4 0.6 1.2 0.7 2.1 0.2 2.1 -1.3 0 -3.3 -4.8 -2.3 -5.5 1.9 -1.1 17.4 -7.5 17.7 -7.3 0.6 0.7 4.4 10.1 4.2 10.3 -0.8 0.7 -13.3 5.5 -14.2 5.4 -0.6 0 1.8 -1.4 5.4 -3z"/>
  <path d="M15.2 15.9 l-2.1 -5 4.2 -1.9 c2.3 -1.1 4.7 -2 5.4 -2 0.9 0 5.3 7.9 5.3 9.6 0 0.4 -9 4.4 -10 4.4 -0.4 0 -1.7 -2.3 -2.8 -5.1z m7.4 1.6 l3.5 -1.4 -1.6 -3.7 c-0.8 -2 -1.5 -3.8 -1.5 -4 0 -0.3 -7.2 2.5 -7.8 3.1 -0.4 0.3 2.8 7.5 3.3 7.5 0.3 0 2.1 -0.7 4.1 -1.5z"/>
 </g>
</svg>