<?xml version="1.0" encoding="utf-8"?>
<!DOCTYPE svg PUBLIC "-//W3C//DTD SVG 20010904//EN" "http://www.w3.org/TR/2001/REC-SVG-20010904/DTD/svg10.dtd">
<svg version="1.0" xmlns="http://www.w3.org/2000/svg" width="70px" height="70px" viewBox="0 0 70 70" preserveAspectRatio="xMidYMid meet">
 <g fill="#f6f6f6">
  <path d="M0 35 l0 -35 35 0 35 0 0 35 0 35 -35 0 -35 0 0 -35z"/>
 </g>
 <g fill="#de0000">
  <path d="M17.7 63.4 c-0.4 -0.4 -0.7 -2.9 -0.7 -5.6 0 -4.4 0.2 -4.8 2.4 -4.8 1.3 0 2.9 -0.7 3.6 -1.5 0.7 -0.8 1.8 -1.5 2.6 -1.5 2.2 0 4.4 -3 4.4 -6.1 0 -1.6 -0.4 -2.9 -1 -2.9 -1.6 0 -8 -6.1 -9.6 -9.1 -0.8 -1.6 -2.2 -2.9 -3 -2.9 -5.3 0 -11 -8.1 -10.2 -14.6 0.2 -2.5 0.8 -2.9 3.6 -3.2 2.7 -0.3 3.2 -0.7 3.2 -2.8 l0 -2.5 21.3 0.3 c21.1 0.3 21.2 0.3 20.9 2.5 -0.3 1.8 0.3 2.2 3 2.5 2.8 0.3 3.3 0.7 3.6 3.2 0.6 4.9 -2.5 11.2 -6.2 13 -1.9 0.9 -4 1.6 -4.8 1.6 -0.7 0 -2.5 2.1 -4 4.6 -1.5 2.4 -4.1 5.2 -5.8 6.2 -1.9 1.1 -3 2.5 -3 3.9 0 3.1 1 5.3 2.5 5.3 0.7 0 2.4 0.9 3.8 2 1.4 1.1 3.5 2 4.7 2 1.9 0 2.1 0.5 1.8 5.3 l-0.3 5.2 -16.1 0.3 c-8.8 0.1 -16.3 -0.1 -16.7 -0.4z m31.3 -4.9 l0 -3.5 -15 0 -15 0 0 3.5 0 3.5 15 0 15 0 0 -3.5z m-6.3 -6.1 c-0.4 -0.4 -1.7 -1.2 -2.9 -1.8 -1.4 -0.7 -2.7 -2.6 -3.2 -4.9 -1.1 -4.3 -4.6 -5.4 -4.6 -1.4 0 2.8 -2.6 6.7 -4.5 6.7 -0.8 0 -1.7 0.5 -2 1 -0.4 0.6 2.7 1 8.6 1 5.1 0 8.9 -0.3 8.6 -0.6z m-0.1 -16.8 c4.2 -4.4 7.2 -10.9 9.9 -21.1 0.7 -2.7 1.1 -5.3 0.8 -5.8 -0.2 -0.4 -8.9 -0.7 -19.4 -0.7 l-18.9 0 0 2.9 c0 1.6 0.9 6 2.1 9.7 4.1 13.5 9.4 19.4 17.3 19.4 3.4 0 4.6 -0.7 8.2 -4.4z m-25.6 -8.8 c-0.1 -0.2 -0.9 -3.2 -1.9 -6.8 -1.6 -5.7 -2.1 -6.5 -4.4 -6.8 -2.4 -0.3 -2.7 0 -2.7 2.8 0 5.4 3.9 10.9 7.8 11 0.6 0 1.2 -0.1 1.2 -0.2z m38.1 -0.8 c2.5 -1.4 4.9 -6.2 4.9 -10 0 -2.8 -0.3 -3.1 -2.6 -2.8 -2.2 0.3 -2.9 1.3 -4.8 7.1 -2.4 7 -2 8 2.5 5.7z"/>
  <path d="M30.2 26.1 c0.3 -1.9 -0.1 -3.6 -0.9 -4.2 -1.9 -1.6 -1.6 -2.9 0.7 -2.9 1.1 0 2.5 -1.1 3.3 -2.6 l1.4 -2.6 1.6 2.6 c1 1.4 2.6 2.6 3.7 2.6 2.4 0 2.6 1.3 0.4 3.1 -1 0.8 -1.3 2.1 -0.9 3.7 0.5 2.2 0.4 2.3 -2.4 1.7 -1.7 -0.3 -3.9 -0.1 -5.2 0.5 -2 1.1 -2.1 1 -1.7 -1.9z m6.8 -2.6 c0 -0.7 0.5 -1.5 1.1 -1.7 0.7 -0.2 0 -1.2 -1.5 -2.1 -1.4 -1 -2.6 -1.3 -2.6 -0.7 0 0.5 -0.7 1 -1.5 1 -1.7 0 -2 1.6 -0.5 2.5 0.5 0.3 0.7 1.2 0.4 1.9 -0.4 1 0.2 1.2 2 0.9 1.4 -0.3 2.6 -1.1 2.6 -1.8z"/>
 </g>
</svg>