<?xml version="1.0" encoding="utf-8"?>
<!DOCTYPE svg PUBLIC "-//W3C//DTD SVG 20010904//EN" "http://www.w3.org/TR/2001/REC-SVG-20010904/DTD/svg10.dtd">
<svg version="1.0" xmlns="http://www.w3.org/2000/svg" width="70px" height="70px" viewBox="0 0 70 70" preserveAspectRatio="xMidYMid meet">
 <g fill="#f6f6f6">
  <path d="M0 35 l0 -35 35 0 35 0 0 35 0 35 -35 0 -35 0 0 -35z"/>
 </g>
 <g fill="#de0000">
  <path d="M25.4 55.6 c-4.4 -3 -10.1 -7.6 -12.5 -10.5 -3.3 -3.8 -5.1 -5.1 -7.1 -5.1 -1.6 0 -2.8 -0.4 -2.8 -1 0 -0.5 1.2 -1 2.8 -1 2.6 0 2.7 -0.2 2.4 -4.2 -0.6 -7.6 6.5 -14.8 14.6 -14.8 l3.2 0 0 -6 c0 -6.7 1.6 -8.1 2.5 -2.3 0.4 2.1 0.9 5.2 1.2 6.8 0.3 1.7 1.7 4.2 3 5.7 l2.6 2.7 1.8 -2.3 c1 -1.2 2.1 -3.6 2.4 -5.2 1.2 -5.4 1.8 -6 2.4 -2.4 0.6 3.3 0.8 3.5 3.9 3.2 4.8 -0.5 9.7 1.5 13.2 5.4 2.5 2.9 3 4.3 3 8.4 0 4.7 0.2 5 2.5 5 1.4 0 2.5 0.5 2.5 1 0 0.6 -1.2 1 -2.6 1 -1.9 0 -3.9 1.5 -7.2 5.2 -4.6 5.1 -20 15.9 -22.4 15.7 -0.7 0 -4.9 -2.4 -9.4 -5.3z m18.9 -2 c7.7 -5 13.7 -10.5 13.7 -12.7 0 -0.5 -2.1 -0.9 -4.7 -0.9 -4.3 0.1 -5.1 0.4 -7.3 3.5 -1.4 1.9 -2.8 3.5 -3.1 3.5 -0.6 0 -1.8 -11.6 -2 -19.4 -0.1 -2.8 -0.9 -0.1 -2.5 8.4 -3.2 16.6 -3.3 17 -4.2 17 -0.8 0 -1.6 -4.4 -4.4 -22.7 -0.7 -4.6 -1.6 -8.3 -2 -8.3 -0.4 0 -0.9 2.6 -0.9 5.8 -0.1 3.1 -0.2 6.2 -0.4 6.7 -0.1 0.6 -0.3 2 -0.3 3.3 -0.2 2.1 -0.7 2.2 -7.2 2.2 -4.7 0 -7 0.4 -7 1.2 0 2 8.2 9.1 15.5 13.5 3.9 2.3 7.3 4.2 7.7 4.3 0.4 0 4.5 -2.4 9.1 -5.4z m-6.4 -26.6 c0 -1.2 -0.2 -1.1 -1.3 0.3 -1.3 1.7 -1.5 1.6 -3.5 -1 l-2.2 -2.8 0.6 4.5 c0.3 2.5 1.1 7.7 1.8 11.5 l1.1 7 1.8 -9 c0.9 -4.9 1.7 -9.7 1.7 -10.5z m16.2 11 l5.9 0 0 -4.9 c0 -7.7 -5.4 -12.7 -13.1 -11.9 l-3.4 0.3 -0.3 6.5 c-0.2 3.6 0 8.4 0.3 10.8 l0.6 4.3 2 -2.6 c1.8 -2.2 2.8 -2.5 8 -2.5z m-29.9 -1.7 c0.3 -1 0.6 -4.8 0.7 -8.5 l0.2 -6.8 -3.1 0 c-4.3 0 -8.7 2.5 -10.5 6 -1.5 3 -2 9.1 -0.8 10.3 0.3 0.4 3.4 0.7 6.9 0.7 5 0 6.2 -0.3 6.6 -1.7z"/>
 </g>
</svg>